<?xml version="1.0" standalone="no"?>
<!DOCTYPE svg PUBLIC "-//W3C//DTD SVG 1.1//EN" "http://www.w3.org/Graphics/SVG/1.1/DTD/svg11.dtd">
<svg xmlns="http://www.w3.org/2000/svg" id="Capa_1" data-name="Capa 1" viewBox="0 0 90.86 25.5" width="90.86000061035156" height="25.5"><defs><style>.cls-1{fill:#960048;}</style></defs><path class="cls-1" d="M43.07,13.88H38.74V12.57H40V7.79H38.74V6.48h4.33V7.79H41.86v4.78h1.21Z" transform="translate(-4.18 -2.6)"/><path class="cls-1" d="M51.62,10.19A3.66,3.66,0,0,1,51.15,12,3.42,3.42,0,0,1,50,13.29a3.59,3.59,0,0,1-1.19.46,7.59,7.59,0,0,1-1.53.13H44.63V6.48h2.68a7,7,0,0,1,1.56.15A3.78,3.78,0,0,1,50,7.06a3.3,3.3,0,0,1,1.2,1.26A3.83,3.83,0,0,1,51.62,10.19Zm-2,0a2.71,2.71,0,0,0-.27-1.25,1.94,1.94,0,0,0-.84-.81,2.32,2.32,0,0,0-.6-.19A5.15,5.15,0,0,0,47,7.86h-.48v4.63H47a6,6,0,0,0,1-.06,2.09,2.09,0,0,0,.62-.22,1.83,1.83,0,0,0,.76-.8A2.71,2.71,0,0,0,49.65,10.17Z" transform="translate(-4.18 -2.6)"/><path class="cls-1" d="M58.43,13.88H53.08V6.48h5.35V7.91H55V9.19h3.2v1.43H55v1.83h3.45Z" transform="translate(-4.18 -2.6)"/><path class="cls-1" d="M65.33,7.91h-3.4V9.29h3.15v1.43H61.93v3.16H60V6.48h5.3Z" transform="translate(-4.18 -2.6)"/><path class="cls-1" d="M72.44,7.91H70.13v6H68.22v-6H65.91V6.48h6.53Z" transform="translate(-4.18 -2.6)"/><path class="cls-1" d="M40.65,19.73H38.77v-.57h.53V17.1h-.53v-.57h1.88v.57h-.52v2.06h.52Z" transform="translate(-4.18 -2.6)"/><path class="cls-1" d="M43.71,19.73h-.77v-1.2c0-.09,0-.19,0-.29a.71.71,0,0,0-.05-.21.25.25,0,0,0-.13-.12.63.63,0,0,0-.23,0,.78.78,0,0,0-.21,0,1,1,0,0,0-.24.11v1.71h-.78V17.31h.78v.27a2,2,0,0,1,.4-.25,1.12,1.12,0,0,1,.42-.08.77.77,0,0,1,.61.23.93.93,0,0,1,.22.68Z" transform="translate(-4.18 -2.6)"/><path class="cls-1" d="M46.53,19a.68.68,0,0,1-.34.6,1.62,1.62,0,0,1-.92.23,2.58,2.58,0,0,1-.58-.06,2.23,2.23,0,0,1-.43-.13V19h.08l.13.09a.93.93,0,0,0,.22.1,1.71,1.71,0,0,0,.27.09,1.69,1.69,0,0,0,.33,0,.79.79,0,0,0,.34-.05.17.17,0,0,0,0-.28.87.87,0,0,0-.25-.07l-.23,0-.27-.06a1,1,0,0,1-.49-.27.69.69,0,0,1-.16-.45.67.67,0,0,1,.34-.58,1.58,1.58,0,0,1,.9-.23,3,3,0,0,1,.52.05l.39.12V18h-.07a1.57,1.57,0,0,0-.39-.19,1.41,1.41,0,0,0-.45-.07.72.72,0,0,0-.31.05c-.09,0-.13.08-.13.14a.15.15,0,0,0,.06.13.58.58,0,0,0,.27.09l.25.05.28.06a.89.89,0,0,1,.45.25A.63.63,0,0,1,46.53,19Z" transform="translate(-4.18 -2.6)"/><path class="cls-1" d="M48.59,19.71l-.27.05-.34,0a1.05,1.05,0,0,1-.67-.18.76.76,0,0,1-.22-.63V17.84h-.32v-.53h.32v-.69h.77v.69h.73v.53h-.73v.86c0,.08,0,.16,0,.22a.47.47,0,0,0,0,.17.25.25,0,0,0,.11.12.42.42,0,0,0,.22.05l.16,0a.44.44,0,0,0,.13-.05h.07Z" transform="translate(-4.18 -2.6)"/><path class="cls-1" d="M49.85,17H49v-.59h.82Zm0,2.76h-.78V17.31h.78Z" transform="translate(-4.18 -2.6)"/><path class="cls-1" d="M52.1,19.71l-.26.05-.34,0a1.08,1.08,0,0,1-.68-.18A.8.8,0,0,1,50.6,19V17.84h-.31v-.53h.31v-.69h.78v.69h.72v.53h-.72v1.08a.47.47,0,0,0,0,.17.23.23,0,0,0,.1.12.46.46,0,0,0,.23.05l.15,0,.14-.05h.06Z" transform="translate(-4.18 -2.6)"/><path class="cls-1" d="M55,19.73H54.2v-.26a2.28,2.28,0,0,1-.39.25,1.1,1.1,0,0,1-.43.08.83.83,0,0,1-.62-.23,1,1,0,0,1-.21-.68V17.31h.78v1.2a2.73,2.73,0,0,0,0,.31.53.53,0,0,0,0,.2.3.3,0,0,0,.13.12.67.67,0,0,0,.23,0l.22,0A1,1,0,0,0,54.2,19V17.31H55Z" transform="translate(-4.18 -2.6)"/><path class="cls-1" d="M57.26,19.71l-.27.05-.34,0A1,1,0,0,1,56,19.6a.76.76,0,0,1-.22-.63V17.84h-.32v-.53h.32v-.69h.77v.69h.73v.53h-.73v1.08a.85.85,0,0,0,0,.17.21.21,0,0,0,.11.12.42.42,0,0,0,.22.05l.16,0a.44.44,0,0,0,.13-.05h.07Z" transform="translate(-4.18 -2.6)"/><path class="cls-1" d="M60.19,18.53a1.24,1.24,0,0,1-.35.94,1.35,1.35,0,0,1-1,.34,1.37,1.37,0,0,1-1-.34,1.45,1.45,0,0,1,0-1.89,1.58,1.58,0,0,1,2,0A1.29,1.29,0,0,1,60.19,18.53Zm-.95.58a.51.51,0,0,0,.11-.22,1.19,1.19,0,0,0,0-.36,1.28,1.28,0,0,0,0-.36.7.7,0,0,0-.11-.23.31.31,0,0,0-.16-.12.52.52,0,0,0-.21,0,.6.6,0,0,0-.2,0,.38.38,0,0,0-.17.12.62.62,0,0,0-.11.23,1.31,1.31,0,0,0,0,.37,1.65,1.65,0,0,0,0,.34.67.67,0,0,0,.11.24.61.61,0,0,0,.16.12.54.54,0,0,0,.22,0,.45.45,0,0,0,.2,0A.33.33,0,0,0,59.24,19.11Z" transform="translate(-4.18 -2.6)"/><path class="cls-1" d="M64.61,19.73h-.78v-.25a1.68,1.68,0,0,1-.38.24,1,1,0,0,1-.4.08.83.83,0,0,1-.7-.34,1.44,1.44,0,0,1-.27-.92,1.53,1.53,0,0,1,.09-.54,1.13,1.13,0,0,1,.25-.41.9.9,0,0,1,.35-.25,1.06,1.06,0,0,1,.42-.09,1.16,1.16,0,0,1,.35,0l.29.12v-1h.78Zm-.78-.66V17.88l-.17-.05-.17,0A.57.57,0,0,0,63,18a.82.82,0,0,0-.15.53.87.87,0,0,0,.12.51.47.47,0,0,0,.4.16.6.6,0,0,0,.22,0A.68.68,0,0,0,63.83,19.07Z" transform="translate(-4.18 -2.6)"/><path class="cls-1" d="M67.72,18.67H66a.54.54,0,0,0,.21.43,1,1,0,0,0,.59.15,1.27,1.27,0,0,0,.47-.09,1.42,1.42,0,0,0,.37-.18h.08v.62a2.7,2.7,0,0,1-.49.15,2.78,2.78,0,0,1-.52.05,1.67,1.67,0,0,1-1.11-.33,1.15,1.15,0,0,1-.39-.93,1.23,1.23,0,0,1,.37-.95,1.41,1.41,0,0,1,1-.35,1.19,1.19,0,0,1,.88.3,1.15,1.15,0,0,1,.3.86ZM67,18.21a.59.59,0,0,0-.12-.36.49.49,0,0,0-.36-.13.57.57,0,0,0-.37.12.51.51,0,0,0-.16.37Z" transform="translate(-4.18 -2.6)"/><path class="cls-1" d="M72.11,17.15H70.64v.59H72v.62H70.64v1.37h-.82v-3.2h2.29Z" transform="translate(-4.18 -2.6)"/><path class="cls-1" d="M75.11,18.53a1.28,1.28,0,0,1-.34.94,1.58,1.58,0,0,1-2,0,1.28,1.28,0,0,1-.34-.94,1.24,1.24,0,0,1,.35-1,1.3,1.3,0,0,1,1-.34,1.33,1.33,0,0,1,1,.34A1.29,1.29,0,0,1,75.11,18.53Zm-1,.58a.51.51,0,0,0,.11-.22,1.19,1.19,0,0,0,0-.36,1.28,1.28,0,0,0,0-.36.7.7,0,0,0-.1-.23.38.38,0,0,0-.17-.12.49.49,0,0,0-.21,0,.64.64,0,0,0-.2,0,.44.44,0,0,0-.17.12.82.82,0,0,0-.11.23,1.31,1.31,0,0,0,0,.37,1.13,1.13,0,0,0,0,.34.67.67,0,0,0,.1.24.52.52,0,0,0,.17.12.51.51,0,0,0,.22,0,.48.48,0,0,0,.2,0A.31.31,0,0,0,74.16,19.11Z" transform="translate(-4.18 -2.6)"/><path class="cls-1" d="M77.42,18.05h-.07l-.15,0H77l-.29,0-.27.07v1.62h-.78V17.31h.78v.36a1.63,1.63,0,0,1,.44-.29,1,1,0,0,1,.35-.07h.18Z" transform="translate(-4.18 -2.6)"/><path class="cls-1" d="M80.23,18v1.71h-.78v-1.2c0-.12,0-.22,0-.3a.59.59,0,0,0,0-.21.19.19,0,0,0-.12-.11.57.57,0,0,0-.22,0,.59.59,0,0,0-.22.05l-.19.1v1.71h-.78V17.31h.78v.27a2.36,2.36,0,0,1,.38-.24.91.91,0,0,1,.41-.09.84.84,0,0,1,.42.1.8.8,0,0,1,.28.32,2.61,2.61,0,0,1,.45-.31,1,1,0,0,1,.43-.11.77.77,0,0,1,.6.23,1,1,0,0,1,.2.68v1.57H81V18.22a.59.59,0,0,0,0-.2.19.19,0,0,0-.12-.11.57.57,0,0,0-.22,0,.65.65,0,0,0-.19,0A1.12,1.12,0,0,0,80.23,18Z" transform="translate(-4.18 -2.6)"/><path class="cls-1" d="M84,19.48l-.15.11a.89.89,0,0,1-.41.18,1.12,1.12,0,0,1-.27,0,.84.84,0,0,1-.58-.21.75.75,0,0,1-.23-.55.71.71,0,0,1,.12-.43.89.89,0,0,1,.33-.27,2.22,2.22,0,0,1,.54-.14l.66-.06h0a.3.3,0,0,0-.17-.28,1.18,1.18,0,0,0-.48-.07,1.26,1.26,0,0,0-.41.07l-.31.1h-.07v-.58l.4-.08a3.39,3.39,0,0,1,.55,0,1.72,1.72,0,0,1,1,.2.74.74,0,0,1,.29.64v1.64H84Zm0-.38v-.5l-.34,0-.27.06a.39.39,0,0,0-.18.1.29.29,0,0,0-.06.19.41.41,0,0,0,0,.12.24.24,0,0,0,.06.09l.12.06a.65.65,0,0,0,.22,0,.62.62,0,0,0,.23,0A1.07,1.07,0,0,0,84,19.1Z" transform="translate(-4.18 -2.6)"/><path class="cls-1" d="M86.74,19.8a2,2,0,0,1-.58-.08,1.17,1.17,0,0,1-.46-.23,1,1,0,0,1-.3-.4,1.37,1.37,0,0,1-.1-.56,1.46,1.46,0,0,1,.11-.58,1.17,1.17,0,0,1,.32-.41,1.35,1.35,0,0,1,.45-.22,1.88,1.88,0,0,1,.53-.07,2.16,2.16,0,0,1,.46.05,2.24,2.24,0,0,1,.39.14v.66h-.11L87.34,18a.74.74,0,0,0-.16-.1L87,17.83a.9.9,0,0,0-.25,0,.59.59,0,0,0-.47.2.8.8,0,0,0-.17.53.75.75,0,0,0,.17.53.66.66,0,0,0,.49.18,1.09,1.09,0,0,0,.26,0,.93.93,0,0,0,.2-.08l.12-.09.11-.09h.11v.66a2.46,2.46,0,0,1-.38.14A2,2,0,0,1,86.74,19.8Z" transform="translate(-4.18 -2.6)"/><path class="cls-1" d="M88.87,17h-.82v-.59h.82Zm0,2.76h-.78V17.31h.78Z" transform="translate(-4.18 -2.6)"/><path class="cls-1" d="M92.05,18.53a1.28,1.28,0,0,1-.35.94,1.57,1.57,0,0,1-2,0,1.45,1.45,0,0,1,0-1.89,1.33,1.33,0,0,1,1-.34,1.2,1.2,0,0,1,1.32,1.29Zm-.56-2.41v.05l-.76.8H90.2l.53-.85Zm-.39,3a.65.65,0,0,0,.11-.22,1.63,1.63,0,0,0,0-.36,1.79,1.79,0,0,0,0-.36.7.7,0,0,0-.11-.23.33.33,0,0,0-.17-.12.45.45,0,0,0-.2,0,.56.56,0,0,0-.2,0,.38.38,0,0,0-.17.12.49.49,0,0,0-.11.23,1.27,1.27,0,0,0,0,.37,1.59,1.59,0,0,0,0,.34.67.67,0,0,0,.11.24.48.48,0,0,0,.16.12.54.54,0,0,0,.22,0,.45.45,0,0,0,.2,0A.33.33,0,0,0,91.1,19.11Z" transform="translate(-4.18 -2.6)"/><path class="cls-1" d="M95,19.73h-.77v-1.2c0-.09,0-.19,0-.29a.49.49,0,0,0,0-.21.25.25,0,0,0-.13-.12.63.63,0,0,0-.23,0,.78.78,0,0,0-.21,0,1.22,1.22,0,0,0-.24.11v1.71h-.77V17.31h.77v.27a2,2,0,0,1,.4-.25,1.16,1.16,0,0,1,.42-.08.77.77,0,0,1,.61.23.93.93,0,0,1,.22.68Z" transform="translate(-4.18 -2.6)"/><path class="cls-1" d="M41.4,24.12a1.63,1.63,0,0,1-.09.55,1.12,1.12,0,0,1-.24.4,1.1,1.1,0,0,1-.35.26,1.3,1.3,0,0,1-.77,0,1.3,1.3,0,0,1-.3-.13v1h-.77V23h.77v.25A1.62,1.62,0,0,1,40,23a.94.94,0,0,1,.43-.09.83.83,0,0,1,.7.33A1.47,1.47,0,0,1,41.4,24.12Zm-.8,0a.83.83,0,0,0-.12-.51.44.44,0,0,0-.38-.16l-.23,0a1.07,1.07,0,0,0-.22.1v1.21l.17,0H40a.56.56,0,0,0,.46-.18A.83.83,0,0,0,40.6,24.14Z" transform="translate(-4.18 -2.6)"/><path class="cls-1" d="M43.42,25.11l-.15.11a.89.89,0,0,1-.41.18,1.12,1.12,0,0,1-.27,0,.84.84,0,0,1-.58-.21.75.75,0,0,1-.23-.55.73.73,0,0,1,.12-.43.89.89,0,0,1,.33-.27,1.86,1.86,0,0,1,.54-.13q.31,0,.66-.06v0a.28.28,0,0,0-.17-.27,1.16,1.16,0,0,0-.48-.08,1.26,1.26,0,0,0-.41.07l-.31.1H42V23l.4-.08a3.39,3.39,0,0,1,.55,0,1.81,1.81,0,0,1,1,.2.72.72,0,0,1,.29.64v1.64h-.77Zm0-.38v-.5l-.34,0a1.19,1.19,0,0,0-.27.05.39.39,0,0,0-.18.1.29.29,0,0,0-.06.19.41.41,0,0,0,0,.12.24.24,0,0,0,.06.09.34.34,0,0,0,.12.06.65.65,0,0,0,.22,0,.62.62,0,0,0,.23,0A.74.74,0,0,0,43.42,24.73Z" transform="translate(-4.18 -2.6)"/><path class="cls-1" d="M46.66,23.69h-.07a.5.5,0,0,0-.16,0h-.18l-.29,0a1.72,1.72,0,0,0-.28.08v1.61h-.77V23h.77v.35a1.76,1.76,0,0,1,.45-.29.91.91,0,0,1,.35-.07h.18Z" transform="translate(-4.18 -2.6)"/><path class="cls-1" d="M48.56,25.11l-.15.11a.89.89,0,0,1-.41.18,1.24,1.24,0,0,1-.27,0,.83.83,0,0,1-.58-.21.71.71,0,0,1-.23-.55.73.73,0,0,1,.12-.43.82.82,0,0,1,.33-.27,1.86,1.86,0,0,1,.54-.13q.31,0,.66-.06v0a.28.28,0,0,0-.17-.27,1.19,1.19,0,0,0-.48-.08,1.26,1.26,0,0,0-.41.07l-.31.1h-.07V23l.4-.08a3.39,3.39,0,0,1,.55,0,1.81,1.81,0,0,1,1,.2.74.74,0,0,1,.29.64v1.64h-.77Zm0-.38v-.5l-.34,0a1.43,1.43,0,0,0-.28.05.4.4,0,0,0-.17.1.29.29,0,0,0-.06.19.41.41,0,0,0,0,.12.24.24,0,0,0,.06.09.34.34,0,0,0,.12.06.87.87,0,0,0,.45,0A.74.74,0,0,0,48.56,24.73Z" transform="translate(-4.18 -2.6)"/><path class="cls-1" d="M53.93,24.3H52.16a.54.54,0,0,0,.21.43,1,1,0,0,0,.59.15,1.31,1.31,0,0,0,.48-.08,2,2,0,0,0,.36-.19h.09v.62a2.79,2.79,0,0,1-.5.15,2.59,2.59,0,0,1-.51.05,1.68,1.68,0,0,1-1.12-.33,1.15,1.15,0,0,1-.39-.93,1.26,1.26,0,0,1,.37-1,1.42,1.42,0,0,1,1-.35,1.21,1.21,0,0,1,.89.3,1.19,1.19,0,0,1,.29.86Zm-.77-.46a.49.49,0,0,0-.12-.36.45.45,0,0,0-.35-.12.54.54,0,0,0-.37.11.48.48,0,0,0-.16.37Z" transform="translate(-4.18 -2.6)"/><path class="cls-1" d="M55.26,25.36h-.78V22h.78Z" transform="translate(-4.18 -2.6)"/><path class="cls-1" d="M60.05,22.78h-1v2.58h-.83V22.78h-1v-.62h2.83Z" transform="translate(-4.18 -2.6)"/><path class="cls-1" d="M62.25,23.69h-.06a.57.57,0,0,0-.16,0h-.19l-.29,0a2,2,0,0,0-.27.08v1.61H60.5V23h.78v.35a1.92,1.92,0,0,1,.44-.29,1,1,0,0,1,.35-.07h.18Z" transform="translate(-4.18 -2.6)"/><path class="cls-1" d="M64.16,25.11l-.16.11a1.2,1.2,0,0,1-.17.11,1.09,1.09,0,0,1-.24.07,1.12,1.12,0,0,1-.27,0,.8.8,0,0,1-.57-.21.72.72,0,0,1-.24-.55.73.73,0,0,1,.12-.43A.85.85,0,0,1,63,24a1.79,1.79,0,0,1,.53-.13q.31,0,.66-.06v0a.27.27,0,0,0-.16-.27,1.19,1.19,0,0,0-.48-.08,1.22,1.22,0,0,0-.41.07l-.32.1h-.07V23l.4-.08a3.52,3.52,0,0,1,.56,0,1.74,1.74,0,0,1,.95.2.72.72,0,0,1,.3.64v1.64h-.77Zm0-.38v-.5l-.34,0a1.3,1.3,0,0,0-.28.05.39.39,0,0,0-.18.1.29.29,0,0,0-.06.19c0,.05,0,.09,0,.12a.18.18,0,0,0,.07.09.23.23,0,0,0,.12.06.56.56,0,0,0,.21,0,.67.67,0,0,0,.24,0A.74.74,0,0,0,64.16,24.73Z" transform="translate(-4.18 -2.6)"/><path class="cls-1" d="M68.16,24.12a1.36,1.36,0,0,1-.31.93,1,1,0,0,1-.79.36,1.25,1.25,0,0,1-.35,0,1.08,1.08,0,0,1-.29-.13l0,.12h-.74V22h.78V23.2a1.81,1.81,0,0,1,.36-.23,1,1,0,0,1,.43-.09.84.84,0,0,1,.71.33A1.53,1.53,0,0,1,68.16,24.12Zm-.8,0a.88.88,0,0,0-.11-.5.43.43,0,0,0-.39-.17l-.22,0a.88.88,0,0,0-.22.1v1.21l.16,0h.18a.55.55,0,0,0,.45-.18A.83.83,0,0,0,67.36,24.14Z" transform="translate(-4.18 -2.6)"/><path class="cls-1" d="M70.19,25.11l-.16.11a1.2,1.2,0,0,1-.17.11,1.09,1.09,0,0,1-.24.07,1.12,1.12,0,0,1-.27,0,.84.84,0,0,1-.58-.21.75.75,0,0,1-.23-.55.73.73,0,0,1,.12-.43A.85.85,0,0,1,69,24a1.79,1.79,0,0,1,.53-.13q.31,0,.66-.06v0a.27.27,0,0,0-.16-.27,1.19,1.19,0,0,0-.48-.08,1.22,1.22,0,0,0-.41.07l-.32.1h-.07V23l.4-.08a3.52,3.52,0,0,1,.56,0,1.74,1.74,0,0,1,1,.2.72.72,0,0,1,.3.64v1.64h-.77Zm0-.38v-.5l-.34,0a1.3,1.3,0,0,0-.28.05.39.39,0,0,0-.18.1.29.29,0,0,0-.06.19.41.41,0,0,0,0,.12.18.18,0,0,0,.07.09.23.23,0,0,0,.12.06.56.56,0,0,0,.21,0,.67.67,0,0,0,.24,0A.74.74,0,0,0,70.19,24.73Z" transform="translate(-4.18 -2.6)"/><path class="cls-1" d="M72.72,25.41a.84.84,0,0,1-.26.64.91.91,0,0,1-.64.23l-.39,0-.25,0v-.56h.06l.16,0,.15,0a.34.34,0,0,0,.31-.14.93.93,0,0,0,.08-.44V23.47h-.46V23h1.24Zm0-2.81h-.83V22h.83Z" transform="translate(-4.18 -2.6)"/><path class="cls-1" d="M75.92,24.16a1.28,1.28,0,0,1-.35.94,1.33,1.33,0,0,1-1,.34,1.3,1.3,0,0,1-1-.34,1.45,1.45,0,0,1,0-1.89,1.36,1.36,0,0,1,1-.34,1.32,1.32,0,0,1,1,.35A1.27,1.27,0,0,1,75.92,24.16Zm-1,.58a.66.66,0,0,0,.12-.22,1.73,1.73,0,0,0,0-.36,1.86,1.86,0,0,0,0-.36,1,1,0,0,0-.11-.23.33.33,0,0,0-.17-.12.46.46,0,0,0-.21,0,.64.64,0,0,0-.2,0,.42.42,0,0,0-.16.12.71.71,0,0,0-.12.23,1.82,1.82,0,0,0,0,.37,1.13,1.13,0,0,0,0,.34.53.53,0,0,0,.11.24.38.38,0,0,0,.16.12.54.54,0,0,0,.22,0,.45.45,0,0,0,.2,0A.28.28,0,0,0,75,24.74Z" transform="translate(-4.18 -2.6)"/><path class="cls-1" d="M23,3.15c-2.66.74-5.69,4-5.69,4v0s-3-3.28-5.68-4a28.85,28.85,0,0,0-7.46-.51V23.36s5-.4,7.05.37c2.42.93,5.53,4.37,5.53,4.37h1.13s3.12-3.44,5.53-4.36c2-.77,7-.38,7-.38V2.64A29.34,29.34,0,0,0,23,3.15Zm5,17.8s-4-.33-6.1.75a25.43,25.43,0,0,0-4.64,3.53h0a25.13,25.13,0,0,0-4.63-3.52C10.58,20.62,6.6,21,6.6,21V5a12,12,0,0,1,5.33,1.1A17.61,17.61,0,0,1,16.76,10H17.9a17.34,17.34,0,0,1,4.82-3.82A12,12,0,0,1,28.06,5Z" transform="translate(-4.18 -2.6)"/><path class="cls-1" d="M22.39,16.2c-.06,0-.52,0-.61,0s-.06,0-.07,0a4.5,4.5,0,0,0-.48-1.2l0,0,.43-.44s.27-.39.05-.61l-.5-.5,0,0-.46-.46c-.22-.22-.57,0-.61,0l-.44.44h0a4.55,4.55,0,0,0-1.24-.53h0c0-.09,0-.56,0-.61s-.09-.47-.4-.47H16.66c-.31,0-.4.41-.4.47v.63a4.27,4.27,0,0,0-1.26.53l0,0c-.07-.06-.39-.39-.43-.44s-.4-.26-.62,0l-.49.49,0,0-.46.46c-.22.22,0,.57.05.61l.44.44a.07.07,0,0,1,0,.1l.05,0A4.54,4.54,0,0,0,13,16.2h0c-.09,0-.56,0-.62,0s-.46.09-.46.4V18c0,.31.4.4.46.4H13a.06.06,0,0,1,.07.07v-.08a4.53,4.53,0,0,0,.49,1.15l0-.06a.08.08,0,0,1,0,.1L13,20s-.26.39,0,.61l.5.5,0,0,.47.46c.21.22.57,0,.61-.05l.43-.43c.05-.05.09,0,.1,0L15,21.05a4.44,4.44,0,0,0,1.25.51h-.1a.07.07,0,0,1,.07.08v.61c0,.06.09.47.4.47h1.39c.31,0,.4-.41.4-.47s0-.52,0-.61,0-.08.06-.08h-.08a4.63,4.63,0,0,0,1.24-.51l-.07.06a.08.08,0,0,1,.1,0l.44.44s.39.26.61,0l.5-.49,0,0,.46-.47c.22-.21,0-.57-.05-.61l-.43-.43c-.05,0,0-.09,0-.1l0,.05a4.44,4.44,0,0,0,.51-1.23v.16s0-.07.08-.07h.61c.06,0,.47-.09.47-.4V16.6C22.86,16.29,22.45,16.2,22.39,16.2Zm-5,3.53a2.51,2.51,0,1,1,2.51-2.51A2.51,2.51,0,0,1,17.36,19.73Z" transform="translate(-4.18 -2.6)"/><path class="cls-1" d="M78.29,23.69a.87.87,0,1,0,.88.87A.87.87,0,0,0,78.29,23.69Zm0,1.56a.69.69,0,0,1,0-1.38.69.69,0,1,1,0,1.38Z" transform="translate(-4.18 -2.6)"/><path class="cls-1" d="M78.71,25h-.22l-.21-.27h-.16V25s0,0,0,0H78s0,0,0,0v-.81a0,0,0,0,1,0,0h.35a.42.42,0,0,1,.26.08.26.26,0,0,1,.09.21.27.27,0,0,1-.18.27Zm-.59-.68v.26h.17a.25.25,0,0,0,.13,0,.12.12,0,0,0,0-.1.11.11,0,0,0,0-.09.21.21,0,0,0-.12,0Z" transform="translate(-4.18 -2.6)"/></svg>